HIERARCHY
ROOT Hips
{
     OFFSET 1.88212 96.90440 -13.34250
     CHANNELS 6 Xposition Yposition Zposition Zrotation Xrotation Yrotation
     JOINT Spine
     {
          OFFSET 0.00000 11.89050 0.00000
          CHANNELS 3 Zrotation Xrotation Yrotation
          JOINT Spine1
          {
               OFFSET -0.00000 25.65740 0.12766
               CHANNELS 3 Zrotation Xrotation Yrotation
               JOINT HEad
               {
                    OFFSET 0.00000 8.73416 0.01134
                    CHANNELS 3 Zrotation Xrotation Yrotation
                    End Site
                    {
                         OFFSET -0.29000 12.77420 2.51395
                    }
               }
               JOINT LeftShoulder1
               {
                    OFFSET 8.99000 -0.36225 -0.22000
                    CHANNELS 3 Zrotation Xrotation Yrotation
                    JOINT LeftArm
                    {
                         OFFSET 10.28270 -0.00338 0.32212
                         CHANNELS 3 Zrotation Xrotation Yrotation
                         JOINT LeftForeArm
                         {
                              OFFSET 32.76690 0.09914 -1.42434
                              CHANNELS 3 Zrotation Xrotation Yrotation
                              JOINT LeftHand
                              {
                                   OFFSET 27.56430 0.08536 1.02216
                                   CHANNELS 3 Zrotation Xrotation Yrotation
                                   End Site
                                   {
                                        OFFSET 16.74430 -0.60000 1.50291
                                   }
                              }
                         }
                    }
               }
               JOINT RightShoulder
               {
                    OFFSET -8.99000 -0.36225 -0.22000
                    CHANNELS 3 Zrotation Xrotation Yrotation
                    JOINT RightArm
                    {
                         OFFSET -10.28270 -0.00338 0.32212
                         CHANNELS 3 Zrotation Xrotation Yrotation
                         JOINT RightForeArm
                         {
                              OFFSET -32.89710 0.09914 -1.42434
                              CHANNELS 3 Zrotation Xrotation Yrotation
                              JOINT RightHand
                              {
                                   OFFSET -27.49210 0.08536 1.02216
                                   CHANNELS 3 Zrotation Xrotation Yrotation
                                   End Site
                                   {
                                        OFFSET -16.63120 -0.60000 1.50291
                                   }
                              }
                         }
                    }
               }
          }
     }
     JOINT LeftUpLeg
     {
          OFFSET 8.94580 -8.66707 0.10165
          CHANNELS 3 Zrotation Xrotation Yrotation
          JOINT LeftLeg
          {
               OFFSET 0.00000 -44.42270 1.37270
               CHANNELS 3 Zrotation Xrotation Yrotation
               JOINT LeftFoot
               {
                    OFFSET -0.25355 -42.09240 -1.46059
                    CHANNELS 3 Zrotation Xrotation Yrotation
                    JOINT LeftToes
                    {
                         OFFSET -0.04000 -4.41509 8.49910
                         CHANNELS 3 Zrotation Xrotation Yrotation
                         End Site
                         {
                              OFFSET 0.08000 -0.04745 9.77979
                         }
                    }
               }
          }
     }
     JOINT RightUpLeg
     {
          OFFSET -8.94580 -8.66707 0.10165
          CHANNELS 3 Zrotation Xrotation Yrotation
          JOINT RightLeg
          {
               OFFSET 0.00000 -44.42270 1.37270
               CHANNELS 3 Zrotation Xrotation Yrotation
               JOINT RightFoot
               {
                    OFFSET 0.25355 -42.09240 -1.46059
                    CHANNELS 3 Zrotation Xrotation Yrotation
                    JOINT RightToes
                    {
                         OFFSET 0.04000 -4.41509 8.49910
                         CHANNELS 3 Zrotation Xrotation Yrotation
                         End Site
                         {
                              OFFSET -0.08000 -0.13745 9.77979
                         }
                    }
               }
          }
     }
}
MOTION
Frames: 13
Frame Time: 0.01667
38.33173 22.93371 -146.48563 6.48035 -38.96427 -36.19669 -8.09650 43.07325 12.53179 0.01596 0.02110 0.00298 -37.63658 26.50830 41.16451 -1.79139 14.58511 0.67868 -118.81049 -16.99131 -78.44235 -59.59407 46.61737 -77.46008 20.64582 -7.07572 -69.64838 13.44435 17.84205 15.23038 53.60229 22.45185 82.47764 56.62168 15.76473 70.43331 -4.16694 10.00228 46.29649 35.91397 -52.13202 35.49493 -230.65704 61.51587 230.60124 -26.02405 0.00951 -0.00797 -1.60611 10.40220 -0.15447 -54.54812 -43.98441 -14.66828 190.47444 18.17253 -196.04724 52.06577 -0.00114 -0.00482 -2.64160 -55.54741 42.81302 
38.32093 23.22563 -146.38730 6.53631 -38.96233 -35.92494 -8.22002 43.07211 12.26435 0.01539 0.01881 0.00348 -37.09042 26.08261 41.04169 -1.74731 14.68743 0.92194 -118.72804 -16.97079 -78.31884 -59.32418 46.66516 -77.63609 20.54841 -7.25415 -69.71964 13.58599 18.02532 15.53825 53.50304 22.30100 82.24667 56.60933 15.80021 70.61568 -3.94402 10.06528 46.26933 34.37995 -51.96734 33.94729 -229.95187 62.58292 230.76778 -25.55830 0.01034 -0.00631 -1.15013 10.46652 -0.76053 -54.71465 -43.31134 -14.46610 190.66301 18.72389 -195.98170 55.98733 -0.00069 -0.00557 -6.53267 -55.10979 42.53239 
38.36079 23.61792 -146.26308 6.64035 -38.91187 -35.62333 -8.33483 42.74256 11.92398 0.01576 0.02182 0.00451 -36.64798 25.84183 41.16086 -1.67046 15.04125 1.21882 -118.66869 -16.93444 -78.22552 -59.13269 46.68926 -77.74569 20.45980 -7.39999 -69.75413 13.74852 18.46126 15.82627 53.39082 22.14276 82.09130 56.60751 15.78758 70.76443 -3.75472 10.13503 46.24644 33.24121 -51.81646 32.77116 -228.68404 64.02621 230.42520 -24.54797 0.01049 -0.00905 -0.72741 10.66300 -1.45401 -54.83681 -42.38564 -14.31835 190.89157 19.55291 -196.04385 59.99006 -0.00049 -0.00649 -10.46015 -54.70954 42.31433 
38.44853 24.08379 -146.13353 6.80158 -38.82630 -35.30542 -8.55142 43.75484 11.89087 0.02460 0.11506 0.01848 -36.00621 24.56603 40.11758 -1.80766 13.92927 1.26955 -118.55958 -16.85577 -78.08878 -59.02420 46.72889 -77.83137 20.38637 -7.49836 -69.74185 13.63242 17.40570 16.09132 53.21129 22.10231 82.06438 56.56853 15.77164 70.89079 -3.63465 10.19728 46.24235 32.29568 -51.68555 31.86439 -228.84285 64.20815 231.02803 -24.82698 0.01267 -0.00803 -0.33471 10.44339 -2.01895 -55.26440 -42.03942 -14.42699 191.15018 19.84355 -196.05176 64.05776 -0.00112 -0.00802 -14.43061 -54.34602 42.12768 
38.57353 24.56974 -146.00655 7.01401 -38.70097 -34.98991 -8.78106 44.23203 11.79334 0.01412 0.01642 0.00303 -35.56236 23.75911 39.64493 -1.87894 13.47256 1.41814 -118.45377 -16.79526 -77.96622 -58.96781 46.77388 -77.89288 20.34394 -7.54671 -69.69231 13.59568 17.00762 16.30058 53.02625 22.04773 82.08970 56.52183 15.76180 71.00925 -3.59816 10.24687 46.23733 31.72635 -51.55328 31.40799 -228.10696 65.14645 230.79836 -24.07784 0.01051 -0.00798 0.03341 10.42209 -2.58250 -55.88461 -42.03092 -14.70733 191.44910 19.84463 -196.05130 68.18622 -0.00178 -0.00923 -18.41662 -54.04557 41.98626 
38.71828 25.08121 -145.86958 7.27212 -38.54153 -34.67528 -9.02655 44.25370 11.63631 0.01370 0.01450 0.00335 -35.21392 23.18077 39.44439 -1.90458 13.31823 1.61176 -118.35146 -16.73373 -77.86768 -58.93677 46.80596 -77.92822 20.33251 -7.55988 -69.61130 13.58747 16.91082 16.48987 52.84283 21.95403 82.15556 56.48031 15.75560 71.12688 -3.61723 10.25879 46.23299 31.67937 -51.42178 31.53452 -226.87703 66.32629 229.91298 -22.75207 0.01000 -0.00903 0.36541 10.43421 -3.12172 -56.22060 -41.38315 -14.82477 191.76080 20.52985 -196.24353 72.37616 -0.00155 -0.00974 -22.38118 -53.85302 41.92349 
38.84990 25.64647 -145.69824 7.55013 -38.34373 -34.36577 -9.27166 43.90186 11.42531 0.01390 0.01796 0.00441 -34.94947 22.85555 39.51936 -1.88305 13.48780 1.86381 -118.25361 -16.66245 -77.80299 -58.91116 46.80738 -77.93931 20.34935 -7.54119 -69.52724 13.62118 17.13990 16.66450 52.66669 21.80276 82.24379 56.45532 15.74496 71.23812 -3.64802 10.24184 46.22137 31.75228 -51.30771 31.90356 -227.27776 66.26753 230.25487 -22.65067 0.01164 -0.00713 0.68519 10.06318 -3.52752 -56.34379 -40.33752 -14.82741 192.22067 22.68103 -196.82347 76.45721 -0.03089 -0.03346 -27.17284 -52.93737 40.88052 
38.94915 26.26251 -145.47885 7.82605 -38.09068 -34.07459 -9.50720 43.23342 11.18422 0.01409 0.02144 0.00546 -34.74329 22.74932 39.81328 -1.81357 13.92335 2.16794 -118.16251 -16.57934 -77.77762 -58.88261 46.76342 -77.92469 20.38097 -7.50841 -69.45448 13.70579 17.63832 16.83352 52.50239 21.58998 82.34025 56.45449 15.71357 71.33068 -3.65626 10.18871 46.22058 31.59524 -51.21254 32.20383 -228.42238 65.73405 231.33350 -23.04052 0.00983 -0.00793 0.99040 9.50218 -3.82411 -56.75685 -39.98938 -15.07413 192.81416 24.45183 -197.48012 80.56681 -0.04751 -0.03530 -32.17304 -51.77768 39.60996 
39.04159 26.91830 -145.21783 8.10567 -37.77362 -33.80257 -9.66666 42.71385 10.97829 0.01260 0.02018 0.00519 -34.58742 22.54295 39.94812 -1.81282 14.17253 2.42184 -118.07206 -16.48499 -77.78724 -58.86316 46.66753 -77.88367 20.41022 -7.46781 -69.41612 13.69684 17.93946 16.99367 52.35955 21.35415 82.46246 56.46774 15.64351 71.39021 -3.62779 10.12194 46.23634 31.43575 -51.11085 32.59324 -228.07748 66.36812 231.32176 -22.03930 0.00826 -0.00547 1.27802 9.19279 -4.20669 -57.26126 -40.04110 -15.44495 193.27274 24.65581 -197.96704 84.95299 -0.01293 -0.01465 -36.19156 -51.49793 39.63604 
39.15610 27.63531 -144.92918 8.40096 -37.40043 -33.53432 -9.77387 42.31068 10.80669 0.01097 0.01861 0.00486 -34.46792 22.24613 39.94256 -1.85766 14.26037 2.62847 -117.99264 -16.38885 -77.84243 -58.86753 46.51748 -77.80908 20.42517 -7.42773 -69.41727 13.59569 18.06708 17.16053 52.25983 21.11297 82.62533 56.48475 15.52114 71.41164 -3.57035 10.05005 46.27539 31.50659 -50.99452 33.22927 -226.90074 67.52689 230.57935 -20.32000 0.00642 -0.00649 1.54548 8.96594 -4.67601 -57.26720 -39.32011 -15.47669 193.63583 25.11027 -198.54576 89.53478 0.01251 -0.01511 -39.70312 -51.60262 40.38920 
39.29297 28.45828 -144.61935 8.69235 -36.97424 -33.26644 -9.82043 42.00701 10.65843 0.00943 0.01712 0.00455 -34.37394 21.87130 39.81631 -1.93581 14.21335 2.79722 -117.93078 -16.28932 -77.94986 -58.90385 46.32087 -77.69817 20.42907 -7.38580 -69.45935 13.40231 18.04780 17.34720 52.21732 20.88053 82.84322 56.49346 15.34430 71.40174 -3.48572 9.98655 46.33229 31.49637 -50.85677 33.80916 -227.16133 67.68452 231.00905 -19.73705 0.00787 -0.00508 1.81018 8.36410 -5.05678 -56.92081 -38.10161 -15.25354 194.11147 27.13767 -199.33034 93.98095 -0.02602 -0.02831 -44.04251 -50.88521 40.15186 
39.45182 29.43037 -144.30338 8.96872 -36.49527 -32.99591 -9.80414 41.78333 10.52868 0.00806 0.01571 0.00434 -34.29612 21.43146 39.58556 -2.04347 14.05216 2.94391 -117.88747 -16.17696 -78.10558 -58.96690 46.09634 -77.56181 20.43863 -7.33654 -69.51940 13.12306 17.90457 17.56217 52.23649 20.66752 83.12113 56.48426 15.12373 71.37321 -3.35947 9.93557 46.39973 31.52047 -50.63935 34.37651 -226.24518 68.94798 230.51297 -17.99800 0.00439 -0.00591 2.09619 8.00184 -5.57893 -56.96943 -37.52486 -15.35617 193.97118 29.33683 -199.66916 90.25260 0.03860 0.01052 -41.58693 -49.72293 39.23217 
39.62130 30.59487 -143.98154 9.20630 -35.96634 -32.72079 -9.70972 41.63089 10.40703 0.00688 0.01437 0.00428 -34.22547 20.94024 39.26344 -2.17976 13.79256 3.08595 -117.85965 -16.04295 -78.29631 -59.04362 45.86828 -77.42171 20.46247 -7.26821 -69.56248 12.77361 17.65635 17.80720 52.31168 20.48147 83.45398 56.45483 14.87856 71.33693 -3.16124 9.91058 46.46313 31.30001 -50.31624 34.65829 -226.71594 69.51780 231.20970 -17.18140 0.00641 -0.00401 2.36380 7.31281 -6.00019 -56.82145 -36.62473 -15.26441 194.34967 32.06789 -200.16286 87.08037 0.04408 0.01531 -39.32746 -48.34872 38.13440 
